<svg xmlns="http://www.w3.org/2000/svg" width="658" height="312" fill="none" xmlns:v="https://vecta.io/nano"><g clip-path="url(#A)" fill="#bcdd33"><path d="M142.09 63.15A89.24 89.24 0 0 0 54.565 169.8c3.443 17.311 11.943 33.212 24.423 45.692a89.23 89.23 0 0 0 45.692 24.423 89.24 89.24 0 0 0 51.561-5.078c16.306-6.754 30.244-18.193 40.049-32.868a89.24 89.24 0 0 0 15.04-49.579 89.34 89.34 0 0 0-89.24-89.24h0zm0 156.24a67 67 0 0 1-47.376-114.376c9.37-9.37 21.308-15.751 34.305-18.337a67 67 0 0 1 80.071 65.713 67.07 67.07 0 0 1-19.644 47.356c-12.561 12.56-29.592 19.625-47.356 19.644h0zM340.3 63.15a89.24 89.24 0 0 0-49.579 15.04c-14.675 9.806-26.114 23.743-32.868 40.049a89.24 89.24 0 0 0-5.078 51.561 89.23 89.23 0 0 0 70.115 70.115 89.24 89.24 0 0 0 51.561-5.078c16.306-6.754 30.244-18.193 40.049-32.868a89.24 89.24 0 0 0 15.04-49.579 89.34 89.34 0 0 0-89.24-89.24h0zm0 156.24a67 67 0 0 1-61.9-41.36c-5.071-12.243-6.398-25.714-3.813-38.711a67 67 0 0 1 18.337-34.305c9.37-9.37 21.308-15.751 34.305-18.337a67 67 0 0 1 38.711 3.813c12.243 5.071 22.706 13.659 30.069 24.677A67 67 0 0 1 407.3 152.39c-.021 17.763-7.087 34.792-19.647 47.353A67.08 67.08 0 0 1 340.3 219.39h0zm310.84-43.78l-7.92-3.75c-5.22-2.32-10.46-4.62-15.86-6.64-.7-.27-1.41-.51-2.12-.78.16-1.49.29-3 .4-4.48.24-3 .26-6 .3-9.08-.037-3.204-.268-6.404-.69-9.58-1.684-12.404-5.85-24.342-12.25-35.1-6.367-10.839-14.963-20.202-25.22-27.47-10.337-7.215-22.154-12.032-34.59-14.1a98.48 98.48 0 0 0-36.66.83 77.43 77.43 0 0 0-33.42 16.16c-1.52 1.25-3 2.57-4.36 3.93V68.16h-22.17v243.29h22.14V111c1.43-1.91 2.93-3.75 4.51-5.49 3.29-3.614 6.938-6.885 10.89-9.76a63.47 63.47 0 0 1 26.28-11 83.76 83.76 0 0 1 29.16.14 64 64 0 0 1 26.12 10.91c15.36 11 25.82 29.42 28.15 48.21a58 58 0 0 1 .43 6.92c-.06 2.21-.11 4.46-.28 6.67-3.32-.88-6.66-1.7-10.06-2.4-11.58-2.34-23.7-3.65-36.31-2.42a73.44 73.44 0 0 0-19 4.38c-6.573 2.47-12.597 6.208-17.73 11a44.35 44.35 0 0 0-11.76 18.6c-2.308 7.209-2.653 14.903-1 22.29a41.92 41.92 0 0 0 10.64 19.73 42.83 42.83 0 0 0 19 11.37c14 3.89 28.1 1.7 40.05-3.77 11.809-5.461 22.024-13.854 29.67-24.38 5.638-7.726 10.025-16.291 13-25.38 4.55 1.73 9.07 3.63 13.57 5.58l7.08 3.25 4.17 2.08 12.7-18.32-6.86-3.6zm-61.51 23.12c-5.468 7.381-12.684 13.287-21 17.19-8 3.73-17.12 4.69-24.49 2.58-3.412-.911-6.51-2.736-8.959-5.279a19.39 19.39 0 0 1-4.941-9.151 20.46 20.46 0 0 1 .555-10.552 20.45 20.45 0 0 1 5.745-8.868c5.5-5.25 14.09-8.3 23.42-9.27s19.48 0 29.49 2c3.4.68 6.79 1.53 10.17 2.44-2.327 6.784-5.697 13.164-9.99 18.91h0zM22 200.81V0H0v208c0 17 11.66 29.31 23.37 35.21L38.13 226C28.75 220.78 22 214.82 22 200.81z"/></g><defs><clipPath id="A"><path fill="#fff" d="M0 0h658v311.45H0z"/></clipPath></defs></svg>